<?xml version="1.0"?>
<svg xmlns="http://www.w3.org/2000/svg" height="512px" viewBox="0 0 480.19031 480" width="512px"><g><path d="m128.109375 64.105469c17.675781 0 32-14.324219 32-32 0-17.671875-14.324219-32-32-32-17.671875 0-32 14.328125-32 32 0 17.675781 14.328125 32 32 32zm0-48c8.835937 0 16 7.164062 16 16 0 8.839843-7.164063 16-16 16s-16-7.160157-16-16c0-8.835938 7.164063-16 16-16zm0 0" data-original="#000000" class="active-path" data-old_color="#000000" fill="#687579"/><path d="m48.109375 176.105469c17.675781 0 32-14.324219 32-32 0-17.671875-14.324219-32-32-32-17.671875 0-32 14.328125-32 32 0 17.675781 14.328125 32 32 32zm0-48c8.835937 0 16 7.164062 16 16 0 8.839843-7.164063 16-16 16s-16-7.160157-16-16c0-8.835938 7.164063-16 16-16zm0 0" data-original="#000000" class="active-path" data-old_color="#000000" fill="#687579"/><path d="m432.109375 312.105469c-17.671875 0-32 14.328125-32 32 0 17.675781 14.328125 32 32 32 17.675781 0 32-14.324219 32-32 0-17.671875-14.324219-32-32-32zm0 48c-8.835937 0-16-7.160157-16-16 0-8.835938 7.164063-16 16-16s16 7.164062 16 16c0 8.839843-7.164063 16-16 16zm0 0" data-original="#000000" class="active-path" data-old_color="#000000" fill="#687579"/><path d="m272.109375 368.105469c-17.671875 0-32 14.328125-32 32 0 17.675781 14.328125 32 32 32 17.675781 0 32-14.324219 32-32 0-17.671875-14.324219-32-32-32zm0 48c-8.835937 0-16-7.160157-16-16 0-8.835938 7.164063-16 16-16s16 7.164062 16 16c0 8.839843-7.164063 16-16 16zm0 0" data-original="#000000" class="active-path" data-old_color="#000000" fill="#687579"/><path d="m479.925781 198.066406-40-152c-.722656-2.75-2.855469-4.910156-5.597656-5.671875l-144.066406-40c-2.675781-.757812-5.558594-.058593-7.589844 1.839844l-112.042969 104c-2.105468 1.957031-3 4.898437-2.34375 7.695313l31.023438 131.671874-196.964844 196.851563c-3.125 3.121094-3.125 8.1875 0 11.308594l24 24c1.5 1.503906 3.535156 2.347656 5.660156 2.347656 2.121094 0 4.15625-.84375 5.660156-2.347656l216.085938-216c2.070312-2.070313 2.84375-5.101563 2.015625-7.910157l-38.597656-131.199218 81.03125-73.601563 103.390625 29.535157 29.511718 110.625-80.917968 66.160156-22.074219-5.511719-.136719-47.511719 23.289063-38.070312c1.507812-2.46875 1.566406-5.558594.148437-8.082032-1.414062-2.523437-4.078125-4.085937-6.972656-4.089843-.09375 0-.207031 0-.304688 0h-32.191406c-2.515625 0-4.886718 1.1875-6.398437 3.203125l-23.832031 32c-1.039063 1.382812-1.601563 3.066406-1.601563 4.796875v88c0 3.445312 2.203125 6.503906 5.472656 7.59375l72 24c2.78125.933593 5.851563.273437 8-1.726563l112.046875-104c2.167969-2.011718 3.050782-5.046875 2.296875-7.90625zm-121.160156 96.953125-62.65625-20.679687v-79.578125l20.039063-26.65625h14.363281l-17.175781 27.816406c-.785157 1.273437-1.199219 2.738281-1.195313 4.234375l.128906 55.949219c.011719 3.671875 2.515625 6.863281 6.082031 7.746093l32.367188 8c2.476562.617188 5.101562.023438 7.070312-1.601562l88.890626-72c2.457031-1.988281 3.507812-5.242188 2.6875-8.292969l-32.3125-120c-.738282-2.714843-2.847657-4.839843-5.550782-5.601562l-113.25-32c-2.644531-.75-5.492187-.089844-7.535156 1.75l-88.921875 80c-2.292969 2.066406-3.195313 5.265625-2.320313 8.226562l39.035157 131.480469-209.074219 206.984375-12.816406-12.691406 196.289062-194.34375c1.976563-1.945313 2.792969-4.785157 2.152344-7.484375l-31.222656-131.472656 106.398437-97.792969 136.632813 37.601562 37.984375 142.917969zm0 0" data-original="#000000" class="active-path" data-old_color="#000000" fill="#687579"/></g> </svg>
